<svg height="257" viewBox="0 0 432 257" width="432" xmlns="http://www.w3.org/2000/svg"><g fill="#fff"><path d="m114.6 2.44h-114.6v114.56c5.90988984-60.6685706 53.92937-108.67128998 114.6-114.56z"/><path d="m139.21 256.23h114.59v-114.58c-5.900103 60.672983-53.916502 108.685192-114.59 114.58z"/><path d="m164.3 107h12.34v-101.82h-12.34v-2.74h89.5v30.33h-2.8v-2.12c0-13.88-10.21-25.47-28.35-25.47h-22.22v46.66h10.57c9.9 0 15.09-5.64 15.09-20.13v-1.71h2.74v48.21h-2.74v-3.51c0-10.83-5.19-20.12-15.09-20.12h-10.57v52.42h22c25 0 28.65-20.74 28.65-29.44v-2.1h2.76v34.32h-89.54zm100.31-37.63h2.74c3.66 17.23 15.24 40.09 35.82 40.09 13.12 0 21.95-8.07 21.95-21.49 0-33.24-60.82-9.29-60.82-55.2 0-20.13 13.41-32.77 33.53-32.77 15.41 0 20.29 8.22 27.17 8.22 4.58 0 4.89-4 4.89-5.93h2.75v34.3h-2.75c-3.81-16.17-12.35-33.85-31.57-33.85-11.6 0-20.32 7.78-20.32 19.52 0 29.43 61.76 6.25 61.76 51.53 0 23.78-13.42 38.42-34.92 38.42-13.26 0-25.76-7.92-31.86-7.92-4.12 0-5.64 2.74-5.64 5.64h-2.74zm69.05 37.63h2c5.79-.45 8.55-4.12 10.38-9.16l35.34-97.84h2.3l40.86 107h7.46v2.75h-45.43v-2.75h12.18l-11.11-31.69h-29.58l-7.32 21.5c-.623698 1.4517093-.985935 3.0022191-1.07 4.58 0 5 4.27 5.64 7.33 5.64h4.26v2.75h-27.6zm52.75-34.46-13.26-38.54h-.3l-13.57 38.57z"/></g></svg>